<svg xmlns="http://www.w3.org/2000/svg" width="1800" height="1200" viewBox="-72 -48 144 96" role="img" aria-labelledby="t">
<title id="t">대한민국 국기 (태극기)</title>
<!-- 대한민국 국기법 시행령 별표 규격.
     깃면 가로:세로 = 3:2 · 태극 지름 = 세로의 1/2 · 4괘는 대각선상 배치.
     국기는 저작권 보호 대상이 아닙니다. -->
<path fill="#fff" d="M-72-48v96H72v-96z"/>
<g stroke="#000" stroke-width="4">
  <!-- 건(☰) 좌상 · 곤(☷) 우하 -->
  <path transform="rotate(33.69006752598)" d="M-50-12v24m6 0v-24m6 0v24m76 0V1m0-2v-11m6 0v11m0 2v11m6 0V1m0-2v-11"/>
  <!-- 리(☲) 좌하 · 감(☵) 우상 -->
  <path transform="rotate(-33.69006752598)" d="M-50-12v24m6 0V1m0-2v-11m6 0v24m76 0V1m0-2v-11m6 0v24m6 0V1m0-2v-11"/>
</g>
<g transform="rotate(33.69006752598)">
  <path fill="#cd2e3a" d="M12 0a18 18 0 11-36 0 24 24 0 1148 0"/>
  <path fill="#0047a0" d="M-24 0a24 24 0 1048 0A12 12 0 100 0a12 12 0 11-24 0"/>
</g>
</svg>
